<?xml version="1.0" encoding="UTF-8" standalone="no"?>
<!-- Generator: Adobe Illustrator 27.6.1, SVG Export Plug-In . SVG Version: 6.00 Build 0)  -->

<svg
   version="1.1"
   id="Layer_1"
   x="0px"
   y="0px"
   viewBox="0 0 152.0566 132.48405"
   xml:space="preserve"
   sodipodi:docname="dancing-logo-berkeley.svg"
   inkscape:version="1.3 (0e150ed6c4, 2023-07-21)"
   width="152.05659"
   height="132.48405"
   xmlns:inkscape="http://www.inkscape.org/namespaces/inkscape"
   xmlns:sodipodi="http://sodipodi.sourceforge.net/DTD/sodipodi-0.dtd"
   xmlns="http://www.w3.org/2000/svg"
   xmlns:svg="http://www.w3.org/2000/svg"><defs
   id="defs115" /><sodipodi:namedview
   id="namedview115"
   pagecolor="#ffffff"
   bordercolor="#000000"
   borderopacity="0.25"
   inkscape:showpageshadow="2"
   inkscape:pageopacity="0.0"
   inkscape:pagecheckerboard="true"
   inkscape:deskcolor="#d1d1d1"
   inkscape:zoom="2.9001522"
   inkscape:cx="87.754015"
   inkscape:cy="65.858613"
   inkscape:window-width="1920"
   inkscape:window-height="1200"
   inkscape:window-x="0"
   inkscape:window-y="0"
   inkscape:window-maximized="0"
   inkscape:current-layer="Layer_1" />&#10;<style
   type="text/css"
   id="style1">&#10;	.st0{fill:#F7945E;}&#10;	.st1{fill:#619BD3;}&#10;	.st2{fill:#F15C45;}&#10;	.st3{fill:#FFCA26;}&#10;	.st4{fill:#214475;}&#10;	.st5{enable-background:new    ;}&#10;	.st6{fill:#224475;}&#10;</style>&#10;<g
   id="g1"><path
     class="st0"
     d="m 11.323142,61.043999 c -8.4600001,4.57 -17.1000001,21.38 -6.2200001,32.57 C 15.983142,104.804 40.033142,107.114 52.053142,101.074 c 13.65,-6.850001 24.93,-36.380001 25.06,-47.260001 0.13,-10.88 0.51,-21.04 4.86,-21.35 4.35,-0.31 12.14,1.32 17.43,-4.28 5.289998,-5.6 2.759998,-18.32 -7.86,-25.37 -9.45,-6.28 -20.11,-3.03999997 -20.52,19.9 -0.27,15.08 -4.42,27.05 -11.07,36.38 -6.65,9.33 -14.12,8.4 -19.71,7.46 -5.6,-0.92 -19.28,-10.72 -28.92,-5.51 z"
     id="path1"
     style="fill:#c4820e;fill-opacity:1" /><path
     class="st1"
     d="m 63.723142,70.913999 c 3.65,-10.42 11.01,-21.3 24.69,-23.17 13.679998,-1.87 25.729998,-3.71 39.109998,0.33 13.37,4.04 25.13,13.51 24.51,33.72 -0.62,20.210001 -14.05,50.740001 -44.14,50.690001 -22.459998,-0.04 -39.379998,-15.84 -43.109998,-31.39 -3.73,-15.550001 -3.24,-23.960001 -1.06,-30.180001 z"
     id="path2"
     style="fill:#3b7ea1;fill-opacity:1" /><path
     class="st2"
     d="m 62.473142,119.424 c 2.81,10 15.55,7.15 19.9,-7.77 4.35,-14.930001 -1.55,-20.210001 5.91,-26.430001 7.46,-6.22 14.609998,-1.87 22.079998,-13.68 7.46,-11.82 6.22,-31.41 -7.77,-32.65 -13.989998,-1.24 -18.349998,0.93 -19.899998,3.11 -1.55,2.18 -3.99,9.79 -5.57,19.04 -1.58,9.25 -4.07,26.67 -6.25,31.95 -2.18,5.29 -11.2,16.480001 -8.4,26.430001 z"
     id="path3"
     style="fill-opacity:1;fill:#ed4e33" /><path
     class="st3"
     d="m 61.333142,48.583999 c -5.07,11.3 -15.82,14.38 -23.27,11.03 -7.45,-3.35 -8.67,-14.93 -4.3,-26.52 5.06,-13.43 16.06,-15.54 23.51,-12.2 7.45,3.35 9.13,16.39 4.06,27.69 z"
     id="path4"
     style="fill:#fdb515;fill-opacity:1" /></g>&#10;</svg>
